<svg width="45" height="30" viewBox="0 0 45 30" fill="none" xmlns="http://www.w3.org/2000/svg">
<rect x="1.13672" y="0.5" width="42.6364" height="29" rx="1.5" fill="#EEEEEE" stroke="#EEEEEE"/>
<path fill-rule="evenodd" clip-rule="evenodd" d="M7.69528 10.5009C7.71069 10.5008 7.72757 10.5005 7.74578 10.5002C8.1041 10.4942 8.97977 10.4793 9.36133 11.763C9.63142 12.6717 10.0617 14.1602 10.652 16.2285H10.8925C11.5256 14.048 11.9605 12.5595 12.1973 11.763C12.5782 10.4815 13.4962 10.4941 13.9414 10.5002C13.9697 10.5006 13.9961 10.5009 14.0204 10.5009L17.1461 10.501V20.1938H13.9603V14.4816H13.7467L11.9707 20.1938H9.57381L7.79788 14.4774H7.58425V20.1938H4.39844V10.501L7.69528 10.5009ZM21.7211 10.5005V16.2169H21.9752L24.1355 11.5163C24.5548 10.5809 25.4486 10.5005 25.4486 10.5005H28.5315V20.1933H25.2792V14.4769H25.025L22.9071 19.1775C22.4878 20.1087 21.5517 20.1933 21.5517 20.1933H18.4688V10.5005H21.7211ZM36.3199 17.3056C37.8973 17.3056 39.3219 16.3878 39.7756 15.1062H29.8164V20.1929H32.9092V17.3056H36.3199Z" fill="#006848"/>
<path d="M36.4692 10.5017H29.6543C29.8165 12.6597 31.6807 14.507 33.6105 14.507H39.9906C40.3588 12.7135 39.0913 10.5017 36.4692 10.5017Z" fill="#1291D0"/>
</svg>
