<svg width="167" height="17" viewBox="0 0 167 17" fill="none" xmlns="http://www.w3.org/2000/svg">
<path d="M36.5897 0.556763V13.9995H34.6409V2.06807H34.0443L23.8231 13.9995H20.8402V0.556763H23.1469V12.3689L33.6864 0.556763H36.5897Z" fill="black"/>
<path d="M127.746 0.556763V13.9199H125.797V2.53356H125.161L114.979 13.9199H111.996V0.556763H114.303V12.299L124.842 0.556763H127.746Z" fill="black"/>
<path d="M130.53 13.92V0.58983H132.284V5.93762H133.081L145.481 0V1.88745L134.078 6.76338V7.23524L146.677 13.92H143.487L133.081 8.21829H132.284V13.92H130.53Z" fill="black"/>
<path fill-rule="evenodd" clip-rule="evenodd" d="M95.2922 13.9199V0.556913H104.758C106.534 0.54385 110.079 1.37986 110.047 4.82838C110.016 8.2769 106.508 8.74716 104.758 8.55122H97.0024V13.9199H95.2922ZM97.0422 2.08528V7.1405H104.837C106.057 7.08825 108.488 6.53701 108.457 4.75005C108.425 2.96308 106.031 2.22897 104.837 2.08528H97.0422Z" fill="black"/>
<path d="M57.5491 7.19857C57.5491 11.1084 53.3646 14.2779 48.2028 14.2779C43.041 14.2779 38.8566 11.1084 38.8566 7.19857C38.8566 3.28877 43.041 0.119263 48.2028 0.119263C53.3646 0.119263 57.5491 3.28877 57.5491 7.19857ZM41.2451 7.19857C41.2451 10.1092 44.3602 12.4687 48.2028 12.4687C52.0455 12.4687 55.1606 10.1092 55.1606 7.19857C55.1606 4.28796 52.0455 1.92844 48.2028 1.92844C44.3602 1.92844 41.2451 4.28796 41.2451 7.19857Z" fill="black"/>
<path fill-rule="evenodd" clip-rule="evenodd" d="M16.4653 0.556763V12.5838H18.5335V16.9426H16.8233V13.956H1.74994V16.9426H0V12.5838H2.06811L3.81805 9.23397L4.01691 0.556763H16.4653ZM14.5563 2.05005V12.5434H3.93735L5.40889 9.39541V2.05005H14.5563Z" fill="black"/>
<path d="M76.9973 2.0547V0.556763H93.3036V2.0547H86.2812V13.9199H84.2578V2.0547H76.9973Z" fill="black"/>
<path fill-rule="evenodd" clip-rule="evenodd" d="M149.421 13.9199L151.966 10.0506H162.426L164.892 13.9199H167L158.608 0.556763H156.063L147.711 13.9199H149.421ZM157.375 2.0283L161.71 8.49489H152.961L157.375 2.0283Z" fill="black"/>
<path d="M59.3389 0.556763V13.9995H61.6456V2.06807H72.8148V13.9995H75.0883V0.556763H59.3389Z" fill="black"/>
</svg>
