<svg width="24" height="24" viewBox="0 0 24 24" fill="none" xmlns="http://www.w3.org/2000/svg">
<path d="M18 0H6C2.68629 0 0 2.68629 0 6V18C0 21.3137 2.68629 24 6 24H18C21.3137 24 24 21.3137 24 18V6C24 2.68629 21.3137 0 18 0Z" fill="black"/>
<path fill-rule="evenodd" clip-rule="evenodd" d="M13.5508 8.61351C13.5508 7.78855 12.8795 7.11749 12.0548 7.11749C11.2303 7.11749 10.5588 7.78855 10.5588 8.61351C10.5588 9.43766 11.2303 10.1088 12.0548 10.1088C12.8795 10.1088 13.5508 9.43766 13.5508 8.61351ZM15.668 8.61351C15.668 10.6054 14.0474 12.2255 12.0548 12.2255C10.0622 12.2255 8.44141 10.6054 8.44141 8.61351C8.44141 6.62068 10.0622 5 12.0548 5C14.0474 5 15.668 6.62068 15.668 8.61351ZM15.6146 14.304C14.9618 14.7145 14.252 15.0055 13.5165 15.1731L15.5364 17.1931C15.9505 17.606 15.9505 18.2763 15.5364 18.69C15.1232 19.1033 14.453 19.1033 14.0404 18.69L12.0545 16.7049L10.0701 18.69C9.8634 18.8965 9.59247 18.9997 9.3212 18.9997C9.0505 18.9997 8.78014 18.8965 8.57325 18.69C8.15969 18.2763 8.15969 17.6064 8.57279 17.1931L10.5924 15.1731C9.85714 15.0055 9.14763 14.7141 8.49477 14.304C8.00011 13.9925 7.85134 13.3394 8.16287 12.8446C8.47395 12.349 9.12704 12.2001 9.62238 12.5117C11.1015 13.4418 13.0069 13.4423 14.487 12.5117C14.982 12.2001 15.6353 12.349 15.9466 12.8446C16.2582 13.3389 16.1093 13.9925 15.6146 14.304Z" fill="white"/>
</svg>
