<svg width="24" height="24" viewBox="0 0 24 24" fill="none" xmlns="http://www.w3.org/2000/svg">
<path fill-rule="evenodd" clip-rule="evenodd" d="M6 0H18C21.3137 0 24 2.68629 24 6V18C24 21.3137 21.3137 24 18 24H6C2.68629 24 0 21.3137 0 18V6C0 2.68629 2.68629 0 6 0ZM19.1222 7.62241C19.6473 7.62241 19.7659 7.8934 19.6473 8.26602C19.4623 9.11998 17.9257 11.3853 17.4498 12.0869C17.3594 12.2202 17.3073 12.2971 17.31 12.2971C17.1237 12.6019 17.0559 12.7374 17.31 13.0762C17.4018 13.2014 17.5966 13.3925 17.8191 13.6109C18.048 13.8356 18.3064 14.0891 18.5125 14.3295C19.2577 15.1764 19.8336 15.8877 19.986 16.3789C20.1215 16.8701 19.8844 17.1242 19.3763 17.1242H17.6318C17.1695 17.1242 16.9312 16.8587 16.4233 16.2928C16.2055 16.0502 15.9382 15.7524 15.5824 15.3966C14.5492 14.3973 14.0919 14.2618 13.8379 14.2618C13.4822 14.2618 13.3806 14.3465 13.3806 14.8546V16.4297C13.3806 16.8532 13.2451 17.1072 12.1272 17.1072C10.2811 17.1072 8.23166 15.9894 6.792 13.9061C4.62405 10.8574 4.03125 8.55395 4.03125 8.09665C4.03125 7.84259 4.11594 7.60547 4.62405 7.60547H6.38551C6.82588 7.60547 6.99525 7.79178 7.16462 8.28296C8.02841 10.7727 9.46807 12.9576 10.0609 12.9576C10.2811 12.9576 10.3827 12.856 10.3827 12.2971V9.72261C10.3409 8.99085 10.0861 8.67203 9.89724 8.43561C9.78008 8.28898 9.68826 8.17405 9.68826 8.01196C9.68826 7.80871 9.85763 7.60547 10.1286 7.60547H12.8724C13.2451 7.60547 13.3806 7.80871 13.3806 8.24908V11.7212C13.3806 12.0938 13.533 12.2293 13.6515 12.2293C13.8717 12.2293 14.058 12.0938 14.4645 11.6873C15.7179 10.2815 16.6155 8.11358 16.6155 8.11358C16.7341 7.85953 16.9374 7.62241 17.3777 7.62241H19.1222Z" fill="black"/>
</svg>
