<svg width="20" height="21" viewBox="0 0 20 21" fill="none" xmlns="http://www.w3.org/2000/svg">
<path fill-rule="evenodd" clip-rule="evenodd" d="M9.99398 3.59748C8.04406 1.89341 5.16035 1.5447 2.92093 3.45811C0.498604 5.52779 0.146663 9.01347 2.06218 11.4783C2.93153 12.597 4.80405 14.4024 6.40573 15.8859C7.21729 16.6376 7.9768 17.3225 8.53324 17.8194C8.81157 18.0679 9.03933 18.2695 9.1977 18.4092C9.27689 18.4791 9.33874 18.5335 9.3809 18.5705L9.4448 18.6265L9.44565 18.6272C9.44571 18.6273 9.44599 18.6275 9.99431 18L9.44565 18.6272L9.99431 19.1066L10.5426 18.6275L9.99431 18C10.5426 18.6275 10.5426 18.6276 10.5426 18.6275L10.6077 18.5705C10.6499 18.5335 10.7117 18.4791 10.7909 18.4092C10.9493 18.2695 11.177 18.0679 11.4554 17.8194C12.0118 17.3225 12.7713 16.6376 13.5829 15.8859C15.1846 14.4024 17.0571 12.597 17.9264 11.4783C19.8346 9.02294 19.537 5.51038 17.059 3.4508C14.7946 1.56878 11.9417 1.89276 9.99398 3.59748ZM9.99431 16.8886C9.88953 16.7956 9.77188 16.691 9.64328 16.5761C9.09197 16.0839 8.34033 15.4061 7.53827 14.6632C5.91273 13.1576 4.14819 11.4465 3.37818 10.4556C2.01498 8.70148 2.25083 6.22283 4.00359 4.72524C5.68159 3.29152 7.94015 3.66038 9.36104 5.32152L9.99431 6.06186L10.6276 5.32152C12.0422 3.66772 14.2712 3.30093 15.9937 4.73254C17.7625 6.20272 17.981 8.69201 16.6104 10.4556C15.8404 11.4465 14.0759 13.1576 12.4503 14.6632C11.6483 15.4061 10.8966 16.0839 10.3453 16.5761C10.2167 16.691 10.0991 16.7956 9.99431 16.8886Z" fill="black"/>
</svg>
