<?xml version="1.0" standalone="no"?>
<!DOCTYPE svg PUBLIC "-//W3C//DTD SVG 20010904//EN"
 "http://www.w3.org/TR/2001/REC-SVG-20010904/DTD/svg10.dtd">
<svg version="1.0" xmlns="http://www.w3.org/2000/svg"
 width="700.000000pt" height="700.000000pt" viewBox="0 0 700.000000 700.000000"
 preserveAspectRatio="xMidYMid meet">
<metadata>
Created by potrace 1.14, written by Peter Selinger 2001-2017
</metadata>
<g transform="translate(0.000000,700.000000) scale(0.100000,-0.100000)"
fill="#000000" stroke="none">
<path d="M2150 5583 c0 -9 -11 -510 -26 -1112 l-25 -1096 -222 -425 -222 -425
-267 -3 -268 -2 0 -560 0 -560 225 0 225 0 0 385 0 385 1930 0 1930 0 0 -385
0 -385 220 0 220 0 0 560 0 560 -265 0 -265 0 0 1540 0 1540 -1595 0 c-1495 0
-1595 -1 -1595 -17z m2700 -1708 l0 -1345 -1360 0 c-1293 0 -1360 1 -1351 18
5 9 90 192 190 405 l181 388 0 939 0 940 1170 0 1170 0 0 -1345z"/>
</g>
</svg>
