<svg width="20" height="20" viewBox="0 0 20 20" fill="none" xmlns="http://www.w3.org/2000/svg">
<path d="M8.33398 10C8.33398 9.07953 9.08018 8.33333 10.0007 8.33333C10.9211 8.33333 11.6673 9.07953 11.6673 10C11.6673 10.9205 10.9211 11.6667 10.0007 11.6667C9.08018 11.6667 8.33398 10.9205 8.33398 10Z" fill="black"/>
<path fill-rule="evenodd" clip-rule="evenodd" d="M0.833984 2.5H7.75296L10.253 4.16667H19.1673V17.5H0.833984V2.5ZM2.50065 4.16667V15.8333H5.83398V15.7424L5.85361 15.6536C6.26133 13.8082 8.00354 12.5 10.0007 12.5C11.9978 12.5 13.74 13.8082 14.1477 15.6536L14.1673 15.7424V15.8333H17.5007V5.83333H9.74834L7.24834 4.16667H2.50065ZM12.4718 15.8333C12.176 14.9078 11.2168 14.1667 10.0007 14.1667C8.78446 14.1667 7.8253 14.9078 7.52955 15.8333H12.4718Z" fill="black"/>
</svg>
