<svg width="20" height="20" viewBox="0 0 20 20" fill="none" xmlns="http://www.w3.org/2000/svg">
<g clip-path="url(#clip0_705_30171)">
<path fill-rule="evenodd" clip-rule="evenodd" d="M5.83398 9.99967C5.83398 7.69849 7.69946 5.83301 10.0007 5.83301C12.3018 5.83301 14.1673 7.69849 14.1673 9.99967C14.1673 12.3009 12.3018 14.1663 10.0007 14.1663C7.69946 14.1663 5.83398 12.3009 5.83398 9.99967ZM10.0007 7.49967C8.61994 7.49967 7.50065 8.61896 7.50065 9.99967C7.50065 11.3804 8.61994 12.4997 10.0007 12.4997C11.3814 12.4997 12.5007 11.3804 12.5007 9.99967C12.5007 8.61896 11.3814 7.49967 10.0007 7.49967Z" fill="black"/>
<path fill-rule="evenodd" clip-rule="evenodd" d="M7.73345 0.833008H12.268L12.9502 2.87948L14.8801 1.91473L18.0865 5.12114L17.1218 7.05056L19.1675 7.73261V12.2672L17.1209 12.9492L18.0855 14.8783L14.879 18.0848L12.95 17.1202L12.268 19.1663H7.73336L7.05134 17.1202L5.12259 18.0845L1.91618 14.8781L2.88063 12.9491L0.833984 12.2671V7.73247L2.88068 7.05029L1.91607 5.12107L5.12256 1.91459L7.05139 2.8792L7.73345 0.833008ZM8.93471 2.49967L8.02479 5.22946L5.45157 3.9426L3.94401 5.45016L5.23082 8.02378L2.50065 8.93376V11.0658L5.23083 11.9755L3.94411 14.549L5.45174 16.0566L8.02483 14.7702L8.93463 17.4996H11.0667L11.9766 14.77L14.55 16.0568L16.0575 14.5492L14.7708 11.9757L17.5008 11.0659V8.93379L14.7717 8.02389L16.0586 5.45023L14.5509 3.94259L11.9767 5.22945L11.0668 2.49967H8.93471Z" fill="black"/>
</g>
<defs>
<clipPath id="clip0_705_30171">
<rect width="20" height="20" fill="white"/>
</clipPath>
</defs>
</svg>
