<svg width="20" height="20" viewBox="0 0 20 20" fill="none" xmlns="http://www.w3.org/2000/svg">
<path fill-rule="evenodd" clip-rule="evenodd" d="M0.833252 2.5H12.4999V5.83333H15.7947L19.1666 9.68689V15.8333H17.3577C17.0145 16.8043 16.0884 17.5 14.9999 17.5C13.9114 17.5 12.9854 16.8043 12.6422 15.8333H6.941C6.5978 16.8043 5.67177 17.5 4.58325 17.5C3.49474 17.5 2.5687 16.8043 2.22551 15.8333H0.833252V2.5ZM2.49992 11.6667V13.6176C2.9478 12.944 3.71368 12.5 4.58325 12.5C5.67177 12.5 6.5978 13.1957 6.941 14.1667H10.8333V11.6667H2.49992ZM10.8333 10H2.49992V4.16667H10.8333V10ZM12.4999 11.6667V14.1667H12.6422C12.9854 13.1957 13.9114 12.5 14.9999 12.5C16.0884 12.5 17.0145 13.1957 17.3577 14.1667H17.4999V11.6667H12.4999ZM17.2259 10H12.4999V7.5H15.0384L17.2259 10ZM15.8333 15C15.8333 14.5398 15.4602 14.1667 14.9999 14.1667C14.5397 14.1667 14.1666 14.5398 14.1666 15C14.1666 15.4602 14.5397 15.8333 14.9999 15.8333C15.4602 15.8333 15.8333 15.4602 15.8333 15ZM4.58325 14.1667C4.12301 14.1667 3.74992 14.5398 3.74992 15C3.74992 15.4602 4.12301 15.8333 4.58325 15.8333C5.04349 15.8333 5.41659 15.4602 5.41659 15C5.41659 14.5398 5.04349 14.1667 4.58325 14.1667Z" fill="black"/>
</svg>
