<svg width="20" height="20" viewBox="0 0 20 20" fill="none" xmlns="http://www.w3.org/2000/svg">
<g clip-path="url(#clip0_644_28148)">
<path fill-rule="evenodd" clip-rule="evenodd" d="M0.833252 10.0026C0.833252 4.93999 4.93731 0.835938 9.99992 0.835938C15.0625 0.835938 19.1666 4.93999 19.1666 10.0026C19.1666 15.0652 15.0625 19.1693 9.99992 19.1693C4.93731 19.1693 0.833252 15.0652 0.833252 10.0026ZM3.03747 7.20901C2.69072 8.07241 2.49992 9.01522 2.49992 10.0026C2.49992 10.5275 2.55385 11.0399 2.65647 11.5344C3.46422 11.958 4.3128 12.3138 5.19479 12.5943C5.06764 11.7718 4.9998 10.9016 4.9998 10.0029C4.9998 9.45185 5.02531 8.91184 5.07427 8.38726C4.35417 8.06087 3.67241 7.66526 3.03747 7.20901ZM3.83646 5.72805C4.30497 6.07977 4.80441 6.39231 5.32989 6.66087C5.58716 5.41294 5.98785 4.28616 6.50641 3.36422C5.43782 3.92774 4.5218 4.74172 3.83646 5.72805ZM9.79686 2.5053L9.79895 2.5186C9.25897 2.60321 8.62258 3.06122 8.03548 4.0491C7.54222 4.87907 7.14038 5.99626 6.90243 7.30583C7.87909 7.61417 8.91941 7.78069 9.9998 7.78069L10.001 7.78069C11.0597 7.78221 12.1033 7.61961 13.0972 7.30579C12.8592 5.99624 12.4574 4.87907 11.9641 4.0491C11.377 3.06123 10.7406 2.60321 10.2006 2.5186L10.2027 2.50529C10.1353 2.5035 10.0677 2.5026 9.99992 2.5026C9.93202 2.5026 9.86433 2.50351 9.79686 2.5053ZM13.4931 3.36404C14.0117 4.2861 14.4125 5.41309 14.6698 6.66126C15.1914 6.39494 15.6914 6.08322 16.1636 5.72836C15.4782 4.74179 14.5619 3.92762 13.4931 3.36404ZM16.9625 7.20946C16.3215 7.67036 15.6388 8.06438 14.9253 8.38746C14.9743 8.91199 14.9998 9.45192 14.9998 10.0029C14.9998 10.9015 14.932 11.7716 14.8048 12.5941C15.6776 12.3164 16.5272 11.9622 17.3434 11.5342C17.446 11.0398 17.4999 10.5275 17.4999 10.0026C17.4999 9.01539 17.3092 8.07273 16.9625 7.20946ZM16.4933 13.7582C15.8089 14.0318 15.1085 14.2614 14.3964 14.4459C14.1597 15.2533 13.8565 15.9956 13.4936 16.6409C14.7442 15.9814 15.7859 14.9787 16.4933 13.7582ZM10.236 17.499L10.2329 17.4818C10.6777 17.4008 11.1882 17.0682 11.6887 16.3772C11.9911 15.9598 12.27 15.4371 12.509 14.8251C11.6805 14.9444 10.8418 15.0042 9.99914 15.0029C9.1476 15.0029 8.30991 14.942 7.49023 14.8242C7.72935 15.4366 8.00832 15.9595 8.31082 16.3771C8.81141 17.0682 9.32187 17.4008 9.76669 17.4818L9.76356 17.499C9.84205 17.5014 9.92084 17.5026 9.99992 17.5026C10.0789 17.5026 10.1576 17.5014 10.236 17.499ZM6.50592 16.6407C6.14305 15.9954 5.83991 15.2532 5.6032 14.4459C4.8855 14.2602 4.18567 14.0301 3.5068 13.7587C4.21416 14.9788 5.25558 15.9812 6.50592 16.6407ZM6.97022 13.0469C7.95019 13.2367 8.96296 13.3362 9.9998 13.3362L10.0011 13.3362C11.0213 13.3378 12.0353 13.2404 13.0293 13.0474C13.224 12.1171 13.3331 11.0882 13.3331 10.0029C13.3331 9.6576 13.3221 9.31784 13.3007 8.98501C12.2354 9.29097 11.1246 9.44892 9.9992 9.44735C8.85531 9.4473 7.74784 9.28613 6.69888 8.98503C6.67751 9.31785 6.66647 9.6576 6.66647 10.0029C6.66647 11.088 6.77553 12.1167 6.97022 13.0469Z" fill="black"/>
</g>
<defs>
<clipPath id="clip0_644_28148">
<rect width="20" height="20" fill="white"/>
</clipPath>
</defs>
</svg>
