<svg width="20" height="20" viewBox="0 0 20 20" fill="none" xmlns="http://www.w3.org/2000/svg">
<g clip-path="url(#clip0_648_25796)">
<path d="M10.833 4.9987V11.6654H9.16634V4.9987H10.833Z" fill="#FF0101"/>
<path d="M9.16634 13.332H10.8413V14.9987H9.16634V13.332Z" fill="#FF0101"/>
<path fill-rule="evenodd" clip-rule="evenodd" d="M0.833008 9.9987C0.833008 4.93609 4.93706 0.832031 9.99967 0.832031C15.0623 0.832031 19.1663 4.93609 19.1663 9.9987C19.1663 15.0613 15.0623 19.1654 9.99967 19.1654C4.93706 19.1654 0.833008 15.0613 0.833008 9.9987ZM9.99967 2.4987C5.85754 2.4987 2.49967 5.85656 2.49967 9.9987C2.49967 14.1408 5.85754 17.4987 9.99967 17.4987C14.1418 17.4987 17.4997 14.1408 17.4997 9.9987C17.4997 5.85656 14.1418 2.4987 9.99967 2.4987Z" fill="#FF0101"/>
</g>
<defs>
<clipPath id="clip0_648_25796">
<rect width="20" height="20" rx="2" fill="white"/>
</clipPath>
</defs>
</svg>
