<svg width="20" height="20" viewBox="0 0 20 20" fill="none" xmlns="http://www.w3.org/2000/svg">
<path fill-rule="evenodd" clip-rule="evenodd" d="M6.54621 9.99998C6.54621 8.12266 8.12953 6.66665 9.99948 6.66665C11.8694 6.66665 13.4528 8.12266 13.4528 9.99998C13.4528 11.8773 11.8694 13.3333 9.99948 13.3333C8.12953 13.3333 6.54621 11.8773 6.54621 9.99998ZM9.99948 8.33331C8.97554 8.33331 8.21288 9.11587 8.21288 9.99998C8.21288 10.8841 8.97554 11.6666 9.99948 11.6666C11.0234 11.6666 11.7861 10.8841 11.7861 9.99998C11.7861 9.11587 11.0234 8.33331 9.99948 8.33331Z" fill="black"/>
<path fill-rule="evenodd" clip-rule="evenodd" d="M0.875095 9.73941C2.10382 6.00643 5.74068 3.33331 9.99998 3.33331C14.2593 3.33331 17.8962 6.00646 19.1249 9.73947L19.2106 10L19.1249 10.2606C17.8961 13.9935 14.2593 16.6666 9.99999 16.6666C5.74067 16.6666 2.1038 13.9935 0.875093 10.2605L0.789337 9.99995L0.875095 9.73941ZM2.54958 9.99995C3.62805 12.8954 6.54143 15 9.99999 15C13.4585 15 16.3719 12.8954 17.4504 10C16.3719 7.10457 13.4585 4.99998 9.99998 4.99998C6.54144 4.99998 3.62807 7.10455 2.54958 9.99995Z" fill="black"/>
</svg>
