<svg width="21" height="21" viewBox="0 0 21 21" fill="none" xmlns="http://www.w3.org/2000/svg">
<path fill-rule="evenodd" clip-rule="evenodd" d="M10.494 3.59645C8.54406 1.89237 5.66035 1.54366 3.42093 3.45707C0.998604 5.52676 0.646663 9.01243 2.56218 11.4773C3.43153 12.596 5.30405 14.4014 6.90573 15.8849C7.71729 16.6366 8.4768 17.3215 9.03324 17.8183C9.31157 18.0668 9.53933 18.2685 9.6977 18.4082C9.77689 18.4781 9.83874 18.5324 9.8809 18.5694L9.9448 18.6254L9.94565 18.6262C9.94571 18.6262 9.94599 18.6265 10.4943 17.999L9.94565 18.6262L10.4943 19.1056L11.0426 18.6265L10.4943 17.999C11.0426 18.6265 11.0426 18.6265 11.0426 18.6265L11.1077 18.5694C11.1499 18.5324 11.2117 18.4781 11.2909 18.4082C11.4493 18.2685 11.677 18.0668 11.9554 17.8183C12.5118 17.3215 13.2713 16.6366 14.0829 15.8849C15.6846 14.4014 17.5571 12.596 18.4264 11.4773C20.3346 9.0219 20.037 5.50934 17.559 3.44976C15.2946 1.56774 12.4417 1.89173 10.494 3.59645ZM10.4943 16.8876C10.3895 16.7946 10.2719 16.6899 10.1433 16.5751C9.59197 16.0828 8.84033 15.405 8.03827 14.6621C6.41273 13.1565 4.64819 11.4455 3.87818 10.4546C2.51498 8.70045 2.75083 6.2218 4.50359 4.7242C6.18159 3.29048 8.44015 3.65934 9.86104 5.32048L10.4943 6.06082L11.1276 5.32048C12.5422 3.66668 14.7712 3.29989 16.4937 4.73151C18.2625 6.20169 18.481 8.69097 17.1104 10.4546C16.3404 11.4455 14.5759 13.1565 12.9503 14.6621C12.1483 15.405 11.3966 16.0828 10.8453 16.5751C10.7167 16.6899 10.5991 16.7946 10.4943 16.8876Z" fill="black"/>
</svg>
