<svg width="15" height="14" viewBox="0 0 15 14" fill="none" xmlns="http://www.w3.org/2000/svg">
<path fill-rule="evenodd" clip-rule="evenodd" d="M7.49576 2.16673C6.13082 0.97388 4.11222 0.729781 2.54463 2.06917C0.848999 3.51795 0.60264 5.95792 1.9435 7.68333C2.55205 8.46641 3.86281 9.7302 4.98399 10.7687C5.55208 11.2948 6.08373 11.7743 6.47325 12.122C6.66807 12.296 6.82751 12.4372 6.93836 12.535C6.9938 12.5839 7.03709 12.6219 7.06661 12.6478L7.11133 12.687L7.11193 12.6876C7.11193 12.6876 7.11217 12.6878 7.49599 12.2485L7.11193 12.6876L7.49599 13.0231L7.87981 12.6878L7.49599 12.2485C7.87981 12.6878 7.87981 12.6878 7.87981 12.6878L7.92538 12.6478C7.95489 12.6219 7.99819 12.5839 8.05362 12.535C8.16448 12.4372 8.32391 12.296 8.51874 12.122C8.90825 11.7743 9.43991 11.2948 10.008 10.7687C11.1292 9.7302 12.4399 8.46641 13.0485 7.68333C14.3842 5.96455 14.1759 3.50576 12.4413 2.06405C10.8562 0.746636 8.85917 0.973426 7.49576 2.16673Z" fill="#FF0101"/>
</svg>
