<svg width="25" height="24" viewBox="0 0 25 24" fill="none" xmlns="http://www.w3.org/2000/svg">
<path d="M20 12C20 11.1515 19.8727 10.4515 19.6182 9.66667C19.5333 12.1485 16.8182 14.2273 15.3333 15.5H19.2152C19.6182 14.3333 20 13.2091 20 12ZM17.2848 6.54848C16.1182 5.61515 14.6333 5 13 5C9.13939 5 6 8.16061 6 12C6 15.8394 9.13939 19 13 19C14.7818 19 16.4152 18.1515 17.6667 17.0485H12.6182V15.5C15.6939 12.8485 17.6667 11.2152 17.6667 9.66667C17.6667 9.00909 17.2 8.11818 16.1182 8.11818C15.2697 8.11818 14.5697 8.90303 14.5697 10.8333H12.6182C12.1939 8.37273 13.6788 6.35758 16.203 6.35758C16.5848 6.35758 16.9242 6.48485 17.2848 6.54848Z" fill="black"/>
</svg>
