<svg width="20" height="20" viewBox="0 0 20 20" fill="none" xmlns="http://www.w3.org/2000/svg">
<path fill-rule="evenodd" clip-rule="evenodd" d="M2.00012 8.4245C2.00012 4.87634 4.87647 2 8.42462 2C11.9728 2 14.8491 4.87634 14.8491 8.4245C14.8491 9.9414 14.3234 11.3355 13.4442 12.4346L18.0001 16.9905L16.9906 18L12.4347 13.4441C11.3356 14.3233 9.94152 14.849 8.42462 14.849C4.87647 14.849 2.00012 11.9726 2.00012 8.4245ZM8.42462 3.42767C5.66494 3.42767 3.42779 5.66482 3.42779 8.4245C3.42779 11.1842 5.66494 13.4213 8.42462 13.4213C11.1843 13.4213 13.4214 11.1842 13.4214 8.4245C13.4214 5.66482 11.1843 3.42767 8.42462 3.42767Z" fill="black"/>
</svg>
