<svg width="20" height="20" viewBox="0 0 20 20" fill="none" xmlns="http://www.w3.org/2000/svg">
<path fill-rule="evenodd" clip-rule="evenodd" d="M5.83329 4.99992C5.83329 2.69873 7.69877 0.833252 9.99996 0.833252C12.3011 0.833252 14.1666 2.69873 14.1666 4.99992C14.1666 7.30111 12.3011 9.16659 9.99996 9.16659C7.69877 9.16659 5.83329 7.30111 5.83329 4.99992ZM9.99996 2.49992C8.61925 2.49992 7.49996 3.61921 7.49996 4.99992C7.49996 6.38063 8.61925 7.49992 9.99996 7.49992C11.3807 7.49992 12.5 6.38063 12.5 4.99992C12.5 3.61921 11.3807 2.49992 9.99996 2.49992Z" fill="#5E5E5E"/>
<path fill-rule="evenodd" clip-rule="evenodd" d="M1.66663 18.3333C1.66663 13.7309 5.39759 9.99992 9.99996 9.99992C14.6023 9.99992 18.3333 13.7309 18.3333 18.3333V19.1666H1.66663V18.3333ZM3.38487 17.4999H16.615C16.205 14.2113 13.3996 11.6666 9.99996 11.6666C6.60028 11.6666 3.79495 14.2113 3.38487 17.4999Z" fill="#5E5E5E"/>
</svg>
