<svg width="20" height="20" viewBox="0 0 20 20" fill="none" xmlns="http://www.w3.org/2000/svg">
<path fill-rule="evenodd" clip-rule="evenodd" d="M9.99398 3.09742C8.04406 1.39335 5.16035 1.04464 2.92093 2.95805C0.498604 5.02773 0.146663 8.5134 2.06218 10.9783C2.93153 12.097 4.80405 13.9024 6.40573 15.3859C7.21729 16.1376 7.9768 16.8225 8.53324 17.3193C8.81157 17.5678 9.03933 17.7695 9.1977 17.9092C9.27689 17.979 9.33874 18.0334 9.3809 18.0704L9.4448 18.1264L9.44565 18.1272C9.44571 18.1272 9.44599 18.1275 9.99431 17.4999L9.44565 18.1272L9.99431 18.6066L10.5426 18.1275L9.99431 17.4999C10.5426 18.1275 10.5426 18.1275 10.5426 18.1275L10.6077 18.0704C10.6499 18.0334 10.7117 17.979 10.7909 17.9092C10.9493 17.7695 11.177 17.5678 11.4554 17.3193C12.0118 16.8225 12.7713 16.1376 13.5829 15.3859C15.1846 13.9024 17.0571 12.097 17.9264 10.9783C19.8346 8.52288 19.537 5.01032 17.059 2.95074C14.7946 1.06872 11.9417 1.3927 9.99398 3.09742ZM9.99431 16.3886C9.88953 16.2956 9.77188 16.1909 9.64328 16.0761C9.09197 15.5838 8.34033 14.906 7.53827 14.1631C5.91273 12.6575 4.14819 10.9464 3.37818 9.95558C2.01498 8.20142 2.25083 5.72277 4.00359 4.22517C5.68159 2.79146 7.94015 3.16032 9.36104 4.82146L9.99431 5.5618L10.6276 4.82146C12.0422 3.16766 14.2712 2.80087 15.9937 4.23248C17.7625 5.70266 17.981 8.19195 16.6104 9.95558C15.8404 10.9464 14.0759 12.6575 12.4503 14.1631C11.6483 14.906 10.8966 15.5838 10.3453 16.0761C10.2167 16.1909 10.0991 16.2956 9.99431 16.3886Z" fill="#5E5E5E"/>
</svg>
