<svg width="20" height="20" viewBox="0 0 20 20" fill="none" xmlns="http://www.w3.org/2000/svg">
<path fill-rule="evenodd" clip-rule="evenodd" d="M6.92491 11.8499C6.92491 10.1515 8.30168 8.77477 10 8.77477C11.6983 8.77477 13.0751 10.1515 13.0751 11.8499C13.0751 13.5482 11.6983 14.9249 10 14.9249C8.30168 14.9249 6.92491 13.5482 6.92491 11.8499ZM10 10.3123C9.15084 10.3123 8.46246 11.0007 8.46246 11.8499C8.46246 12.699 9.15084 13.3874 10 13.3874C10.8492 13.3874 11.5375 12.699 11.5375 11.8499C11.5375 11.0007 10.8492 10.3123 10 10.3123Z" fill="#8500FF"/>
<path fill-rule="evenodd" clip-rule="evenodd" d="M10 2L18.7714 9.45566L17.7756 10.6272L16.9189 9.89903V18H3.08106V9.89903L2.22442 10.6272L1.22864 9.45566L10 2ZM4.6186 8.59212V16.4625H15.3814V8.59212L10 4.01793L4.6186 8.59212Z" fill="#8500FF"/>
</svg>
