<svg width="20" height="20" viewBox="0 0 20 20" fill="none" xmlns="http://www.w3.org/2000/svg">
<g clip-path="url(#clip0_714_21291)">
<path fill-rule="evenodd" clip-rule="evenodd" d="M10.5966 2C7.04846 2 4.17212 4.87634 4.17212 8.4245C4.17212 11.9726 7.04846 14.849 10.5966 14.849C12.1135 14.849 13.5076 14.3233 14.6067 13.4441L19.1626 18L20.1721 16.9905L15.6162 12.4346C16.4954 11.3355 17.0211 9.9414 17.0211 8.4245C17.0211 4.87634 14.1448 2 10.5966 2ZM5.59978 8.4245C5.59978 5.66482 7.83694 3.42767 10.5966 3.42767C13.3563 3.42767 15.5934 5.66482 15.5934 8.4245C15.5934 11.1842 13.3563 13.4213 10.5966 13.4213C7.83694 13.4213 5.59978 11.1842 5.59978 8.4245ZM-0.172119 6.31863L1.95867 6.31862V4.77344L-0.172119 4.77346V6.31863ZM-0.172119 9.58661H3.04744V11.137H-0.172119V9.58661ZM6.2693 15.9554H-0.172119V14.3788H6.2693V15.9554Z" fill="#5E5E5E"/>
</g>
<defs>
<clipPath id="clip0_714_21291">
<rect width="20" height="20" fill="white"/>
</clipPath>
</defs>
</svg>
