<svg width="107" height="50" viewBox="0 0 107 50" fill="none" xmlns="http://www.w3.org/2000/svg">
<path d="M106.387 16.924C106.387 16.924 101.178 18.5739 100.104 21.9274C99.0292 25.2774 103.074 27.2467 103.074 27.2467C103.074 27.2467 97.4264 27.008 94.0155 29.8987C90.6132 32.7827 92.8706 35.8822 92.8706 35.8822C92.8706 35.8822 87.9331 34.2931 83.3693 36.4684C78.8146 38.6403 79.5061 42.249 79.5061 42.249C79.5061 42.249 75.5519 39.8049 70.445 41.2871C65.3412 42.7684 64.6803 46.5501 64.6803 46.5501C64.6803 46.5501 61.7836 43.5277 56.4534 44.3416C51.1232 45.1555 49.2606 48.9048 49.2606 48.9048C49.2606 48.9048 47.5012 45.4925 42.1879 45.6019C36.8714 45.7113 33.8268 49.2241 33.8268 49.2241C33.8268 49.2241 33.4098 45.5733 28.4113 44.8601C23.4095 44.1455 19.1681 47.1359 19.1681 47.1359C19.1681 47.1359 20.4007 43.5037 16.2927 41.7663C12.1746 40.0251 6.85557 41.9382 6.85557 41.9382C6.85557 41.9382 10.1283 38.8517 8.10288 35.9752C6.0769 33.0954 0.613015 33.0753 0.613015 33.0753C0.613015 33.0753 5.82191 31.4254 6.89607 28.0719C7.97077 24.7219 3.92601 22.7527 3.92601 22.7527C3.92601 22.7527 9.57361 22.9913 12.9845 20.1007C16.3868 17.2166 14.1295 14.1174 14.1295 14.1174C14.1295 14.1174 19.0669 15.7062 23.6307 13.5309C28.1854 11.359 27.4939 7.75032 27.4939 7.75032C27.4939 7.75032 31.4481 10.1944 36.555 8.71223C41.6588 7.23092 42.3197 3.44927 42.3197 3.44927C42.3197 3.44927 45.2164 6.47169 50.5465 5.65779C55.8736 4.84437 57.7395 1.09472 57.7395 1.09472C57.7395 1.09472 59.4988 4.5068 64.8121 4.39746C70.1286 4.28803 73.1732 0.775258 73.1732 0.775258C73.1732 0.775258 73.5902 4.42608 78.5887 5.13944C83.5905 5.85405 87.832 2.86366 87.832 2.86366C87.832 2.86366 86.5993 6.4958 90.7073 8.23307C94.8254 9.97428 100.144 8.06116 100.144 8.06116C100.144 8.06116 96.8717 11.1477 98.8971 14.0241C100.923 16.904 106.387 16.924 106.387 16.924Z" fill="#0000EE"/>
</svg>
