<svg width="1440" height="419" viewBox="0 0 1440 419" fill="none" xmlns="http://www.w3.org/2000/svg">
<rect width="1441" height="419" fill="black"/>
<path d="M578.087 185.691V226.503H572.17V190.279H570.359L539.327 226.503H530.271V185.691H537.275V221.552L569.272 185.691H578.087Z" fill="white"/>
<path d="M854.835 185.691V226.261H848.918V191.692H846.986L816.075 226.261H807.02V185.691H814.023V221.34L846.02 185.691H854.835Z" fill="white"/>
<path d="M863.287 226.261V185.791H868.613V202.027H871.034L908.679 184V189.73L874.06 204.534V205.966L912.31 226.261H902.626L871.034 208.951H868.613V226.261H863.287Z" fill="white"/>
<path fill-rule="evenodd" clip-rule="evenodd" d="M756.306 226.261V185.691H785.043C790.436 185.651 801.199 188.19 801.102 198.659C801.006 209.129 790.356 210.557 785.043 209.962H761.498V226.261H756.306ZM761.618 190.331V205.679H785.284C788.987 205.52 796.369 203.846 796.272 198.421C796.176 192.996 788.907 190.767 785.284 190.331H761.618Z" fill="white"/>
<path d="M641.719 205.855C641.719 217.725 629.015 227.347 613.344 227.347C597.673 227.347 584.969 217.725 584.969 205.855C584.969 193.985 597.673 184.362 613.344 184.362C629.015 184.362 641.719 193.985 641.719 205.855ZM592.22 205.855C592.22 214.691 601.678 221.855 613.344 221.855C625.01 221.855 634.468 214.691 634.468 205.855C634.468 197.018 625.01 189.855 613.344 189.855C601.678 189.855 592.22 197.018 592.22 205.855Z" fill="white"/>
<path fill-rule="evenodd" clip-rule="evenodd" d="M516.989 185.691V222.205H523.267V235.438H518.075V226.371H472.313V235.438H467V222.205H473.279L478.592 212.035L479.195 185.691H516.989ZM511.193 190.224V222.082H478.954L483.421 212.525V190.224H511.193Z" fill="white"/>
<path d="M700.765 190.238V185.691H750.27V190.238H728.95V226.261H722.807V190.238H700.765Z" fill="white"/>
<path fill-rule="evenodd" clip-rule="evenodd" d="M920.641 226.261L928.369 214.514H960.125L967.611 226.261H974.011L948.534 185.691H940.806L915.449 226.261H920.641ZM944.793 190.158L957.954 209.791H931.39L944.793 190.158Z" fill="white"/>
<path d="M647.152 185.691V226.503H654.156V190.279H688.065V226.503H694.968V185.691H647.152Z" fill="white"/>
</svg>
