<svg width="45" height="30" viewBox="0 0 45 30" fill="none" xmlns="http://www.w3.org/2000/svg">
<rect x="1.41016" y="0.5" width="42.6364" height="29" rx="1.5" fill="#EEEEEE" stroke="#EEEEEE"/>
<path d="M26.7063 21.3137H19.2461V8.05298H26.7063V21.3137Z" fill="#6C6BBD"/>
<path d="M19.7218 14.6841C19.7218 11.9941 20.9952 9.59795 22.9781 8.05375C21.528 6.92456 19.698 6.25059 17.709 6.25059C13.0004 6.25059 9.18359 10.0264 9.18359 14.6841C9.18359 19.3419 13.0004 23.1177 17.709 23.1177C19.698 23.1177 21.528 22.4437 22.9781 21.3145C20.9952 19.7703 19.7218 17.3741 19.7218 14.6841Z" fill="#EB001B"/>
<path d="M36.7735 14.6841C36.7735 19.3419 32.9566 23.1177 28.248 23.1177C26.2591 23.1177 24.429 22.4437 22.9784 21.3145C24.9619 19.7703 26.2353 17.3741 26.2353 14.6841C26.2353 11.9941 24.9619 9.59795 22.9784 8.05375C24.429 6.92456 26.2591 6.25059 28.248 6.25059C32.9566 6.25059 36.7735 10.0264 36.7735 14.6841Z" fill="#0099DF"/>
</svg>
