<svg width="44" height="30" viewBox="0 0 44 30" fill="none" xmlns="http://www.w3.org/2000/svg">
<rect x="0.5" y="0.5" width="42.6364" height="29" rx="1.5" fill="#EEEEEE" stroke="#EEEEEE"/>
<path d="M19.372 20.575H16.4668L18.2839 10.0745H21.1889L19.372 20.575Z" fill="#292C6B"/>
<path d="M29.9042 10.3311C29.3312 10.1186 28.4223 9.88403 27.2985 9.88403C24.4295 9.88403 22.4092 11.3138 22.3968 13.358C22.373 14.8662 23.8433 15.7038 24.943 16.2067C26.067 16.7206 26.449 17.056 26.449 17.514C26.4376 18.2175 25.5408 18.5417 24.7044 18.5417C23.5445 18.5417 22.923 18.3746 21.9785 17.9832L21.596 17.8154L21.1895 20.1725C21.8708 20.4627 23.1262 20.7201 24.4295 20.7314C27.4779 20.7314 29.4624 19.3237 29.4859 17.1454C29.4975 15.95 28.7212 15.0341 27.0473 14.2856C26.0312 13.8052 25.4089 13.4812 25.4089 12.9896C25.4209 12.5427 25.9353 12.085 27.0823 12.085C28.0268 12.0626 28.7207 12.2747 29.2464 12.487L29.5091 12.5985L29.9042 10.3311Z" fill="#292C6B"/>
<path fill-rule="evenodd" clip-rule="evenodd" d="M35.1055 10.0745H37.3526L39.6964 20.5748H37.0065C37.0065 20.5748 36.7432 19.3684 36.6598 18.9997H32.9298C32.8219 19.2788 32.3201 20.5748 32.3201 20.5748H29.2717L33.587 10.9457C33.886 10.2642 34.4125 10.0745 35.1055 10.0745ZM34.9277 13.9167C34.9277 13.9167 34.0071 16.2514 33.7678 16.8546H36.1826C36.0631 16.3296 35.513 13.8162 35.513 13.8162L35.3099 12.9114C35.2244 13.1444 35.1008 13.4647 35.0174 13.6807C34.9609 13.8272 34.9228 13.9257 34.9277 13.9167Z" fill="#292C6B"/>
<path d="M14.0438 10.0745L11.1986 17.2348L10.8877 15.7826C10.3617 14.107 8.71204 12.2864 6.87109 11.3812L9.47714 20.5639H12.5493L17.1158 10.0745H14.0438Z" fill="#292C6B"/>
<path d="M8.55597 10.0757H3.8818L3.83398 10.2879C7.48013 11.1592 9.8949 13.2597 10.887 15.7843L9.87091 10.9583C9.70363 10.2877 9.18953 10.0978 8.55597 10.0757Z" fill="#FAA61A"/>
</svg>
