<svg width="44" height="30" viewBox="0 0 44 30" fill="none" xmlns="http://www.w3.org/2000/svg">
<rect x="0.773438" y="0.5" width="42.6364" height="29" rx="1.5" fill="#EEEEEE" stroke="#EEEEEE"/>
<path d="M25.8908 21.1534H18.5098V8.03345H25.8908V21.1534Z" fill="#FF5F00"/>
<path d="M18.9771 14.5942C18.9771 11.9328 20.2369 9.56207 22.1988 8.03428C20.7641 6.91708 18.9535 6.25026 16.9857 6.25026C12.3271 6.25026 8.55078 9.98593 8.55078 14.5942C8.55078 19.2026 12.3271 22.9382 16.9857 22.9382C18.9535 22.9382 20.7641 22.2714 22.1988 21.1542C20.2369 19.6264 18.9771 17.2557 18.9771 14.5942Z" fill="#EB001B"/>
<path d="M35.8478 14.5942C35.8478 19.2026 32.0715 22.9382 27.4129 22.9382C25.4451 22.9382 23.6344 22.2714 22.1992 21.1542C24.1617 19.6264 25.4215 17.2557 25.4215 14.5942C25.4215 11.9328 24.1617 9.56207 22.1992 8.03428C23.6344 6.91708 25.4451 6.25026 27.4129 6.25026C32.0715 6.25026 35.8478 9.98593 35.8478 14.5942Z" fill="#F79E1B"/>
</svg>
