<svg width="333" height="160" viewBox="0 0 333 160" fill="none" xmlns="http://www.w3.org/2000/svg">
<rect width="333" height="160" rx="4" fill="black"/>
<path d="M106.669 69.7101V86.8556H104.183V71.6377H103.422L90.3855 86.8556H86.5811V69.7101H89.5232V84.7758L102.966 69.7101H106.669Z" fill="white"/>
<path d="M222.933 69.7101V86.7541H220.448V72.2314H219.636L206.65 86.7541H202.846V69.7101H205.788V84.6867L219.23 69.7101H222.933Z" fill="white"/>
<path d="M226.484 86.7542V69.7523H228.722V76.5731H229.739L245.554 69V71.4074L231.01 77.6264V78.2282L247.079 86.7542H243.011L229.739 79.482H228.722V86.7542H226.484Z" fill="white"/>
<path fill-rule="evenodd" clip-rule="evenodd" d="M181.54 86.7541V69.7103H193.613C195.879 69.6936 200.4 70.7599 200.36 75.1583C200.319 79.5567 195.845 80.1565 193.613 79.9066H183.721V86.7541H181.54ZM183.772 71.6595V78.1072H193.714C195.27 78.0406 198.371 77.3375 198.33 75.0583C198.29 72.7791 195.236 71.8428 193.714 71.6595H183.772Z" fill="white"/>
<path d="M133.401 78.1814C133.401 83.1681 128.064 87.2107 121.48 87.2107C114.897 87.2107 109.56 83.1681 109.56 78.1814C109.56 73.1947 114.897 69.1521 121.48 69.1521C128.064 69.1521 133.401 73.1947 133.401 78.1814ZM112.606 78.1814C112.606 81.8937 116.579 84.9032 121.48 84.9032C126.381 84.9032 130.355 81.8937 130.355 78.1814C130.355 74.4691 126.381 71.4596 121.48 71.4596C116.579 71.4596 112.606 74.4691 112.606 78.1814Z" fill="white"/>
<path fill-rule="evenodd" clip-rule="evenodd" d="M81.0007 69.7101V85.0499H83.6385V90.6094H81.4573V86.8001H62.232V90.6094H60V85.0499H62.6378L64.8697 80.7774L65.1234 69.7101H81.0007ZM78.566 71.6147V84.9984H65.0221L66.8989 80.9833V71.6147H78.566Z" fill="white"/>
<path d="M158.207 71.6206V69.7101H179.005V71.6206H170.048V86.7541H167.467V71.6206H158.207Z" fill="white"/>
<path fill-rule="evenodd" clip-rule="evenodd" d="M250.579 86.7541L253.825 81.819H267.166L270.311 86.7541H273L262.296 69.7101H259.05L248.397 86.7541H250.579ZM260.725 71.5869L266.254 79.8348H255.094L260.725 71.5869Z" fill="white"/>
<path d="M135.684 69.7101V86.8556H138.626V71.6377H152.871V86.8556H155.771V69.7101H135.684Z" fill="white"/>
</svg>
