<svg width="74" height="74" viewBox="0 0 74 74" fill="none" xmlns="http://www.w3.org/2000/svg">
<rect width="74" height="74" fill="white"/>
<path d="M1 56L1 27.5L38 30L74 27.6119L74 56L1 56Z" fill="#D9D9D9"/>
<path d="M70.5 37.5014L71 29.0014C66.5 25.5014 53.5 26.5014 49 27.0014C45.4 27.4014 42.5 29.5014 41.5 30.5014L42.5 37.5014C43.5 40.0014 46.3 45.3014 49.5 46.5014C53.5 48.0014 57.5 47.5014 62.5 47.0014C66.5 46.6014 68.1667 45.1681 68.5 44.5014L70.5 37.5014Z" fill="white"/>
<path d="M4.5 37.5014L4 29.0014C8.5 25.5014 21.5 26.5014 26 27.0014C29.6 27.4014 32.5 29.5014 33.5 30.5014L32.5 37.5014C31.5 40.0014 28.7 45.3014 25.5 46.5014C21.5 48.0014 17.5 47.5014 12.5 47.0014C8.5 46.6014 6.83333 45.1681 6.5 44.5014L4.5 37.5014Z" fill="white"/>
<path d="M70.0865 34.2187C69.6029 38.7395 68.3149 42.569 68.0197 43.1806C67.7244 43.7922 66.6781 45.5739 65.0411 45.9462C60.3981 47.1695 57.0435 46.9302 54.5476 46.8504C52.0516 46.7707 51.2466 46.6376 48.6969 45.8133C45.9328 44.8294 44.9666 41.4254 44.9666 41.4254C44.9666 41.4254 42.9002 36.0271 42.4438 33.5539C42.1755 30.9743 44.1883 29.4319 45.4228 28.9523C46.6573 28.4726 50.0388 27.5971 54.8158 27.3577C59.593 27.1184 61.6864 27.4109 65.6851 28.1555C69.6843 28.9001 69.7645 30.6287 69.7645 30.6287C69.7645 30.6287 70.1131 32.1178 70.0865 34.2187ZM32.5565 33.5539C32.1002 36.0271 30.0337 41.4254 30.0337 41.4254C30.0337 41.4254 29.0676 44.8294 26.3033 45.8133C23.7538 46.6376 22.9486 46.7707 20.4527 46.8504C17.9569 46.9302 14.6022 47.1695 9.95934 45.9462C8.32221 45.5739 7.27558 43.7922 6.98033 43.1806C6.6852 42.569 5.3969 38.7395 4.91393 34.2187C4.88708 32.1178 5.23578 30.6287 5.23578 30.6287C5.23578 30.6287 5.31647 28.9001 9.31525 28.1555C13.3139 27.4109 15.4073 27.1184 20.1844 27.3577C24.9614 27.5971 28.343 28.4726 29.5775 28.9523C30.8121 29.4319 32.8249 30.9743 32.5565 33.5539ZM73.9909 27.7292C73.9706 27.1768 73.6295 27.1051 73.6295 27.1051C73.6295 27.1051 65.5777 26.1876 62.2365 26.0281C53.9839 25.8685 49.7169 26.4269 47.3819 26.7461C45.0471 27.0652 44.0005 27.6237 44.0005 27.6237C44.0005 27.6237 42.3499 28.7406 41.9877 29.0198C41.6252 29.299 40.9409 29.4585 40.9409 29.4585H34.0593C34.0593 29.4585 33.375 29.299 33.0127 29.0198C32.6504 28.7406 30.9999 27.6237 30.9999 27.6237C30.9999 27.6237 29.9533 27.0652 27.6183 26.7461C25.2835 26.4269 21.0164 25.8685 12.7639 26.0281C9.42254 26.1876 1.37139 27.1051 1.37139 27.1051C1.37139 27.1051 1.02917 27.1768 1.00894 27.7292C0.988829 28.2818 1.00894 30.8946 1.00894 30.8946C1.00894 30.8946 0.988829 31.2536 1.19016 31.4729C1.39137 31.6924 2.35756 32.4104 2.35756 32.4104C2.35756 32.4104 2.94132 32.6497 3.10231 33.5074C3.2633 34.365 4.00144 38.3406 5.10177 42.0104C6.09469 45.1218 7.06088 46.1589 8.69789 46.7971C10.4156 47.3557 13.0456 48.0737 19.0035 47.9939C24.9614 47.9141 27.3232 46.7174 28.0477 46.292C28.7724 45.8665 29.7654 44.457 30.5168 43.1806C31.2683 41.9041 32.5565 39.564 34.0862 35.0431C34.6497 33.5539 34.9181 33.155 35.1328 32.7827C35.3475 32.4104 35.9112 32.2509 36.2331 32.171C36.3939 32.1313 36.7952 32.1312 37.1568 32.141V32.171C37.1568 32.171 37.299 32.1623 37.5001 32.1534C37.7013 32.1623 37.8434 32.171 37.8434 32.171V32.141C38.2051 32.1312 38.6064 32.1313 38.7671 32.171C39.0892 32.2509 39.6528 32.4104 39.8674 32.7827C40.0821 33.155 40.3505 33.5539 40.9141 35.0431C42.4438 39.564 43.7321 41.9041 44.4835 43.1806C45.235 44.457 46.2279 45.8665 46.9525 46.292C47.6772 46.7174 50.0388 47.9141 55.9967 47.9939C61.9548 48.0737 64.5848 47.3557 66.3024 46.7971C67.9395 46.1589 68.9054 45.1218 69.8981 42.0104C70.999 38.3406 71.737 34.365 71.8974 33.5074C72.0591 32.6497 72.6431 32.4104 72.6431 32.4104C72.6431 32.4104 73.6092 31.6924 73.8102 31.4729C74.0113 31.2536 73.9909 30.8946 73.9909 30.8946C73.9909 30.8946 74.0113 28.2818 73.9909 27.7292Z" fill="black"/>
<path d="M74 56L69 53.1132L69 58.8867L74 56ZM1 56L6 58.8868L6 53.1132L1 56ZM69.5 55.5L5.5 55.5L5.5 56.5L69.5 56.5L69.5 55.5Z" fill="#FF0101"/>
</svg>
