<svg width="74" height="74" viewBox="0 0 74 74" fill="none" xmlns="http://www.w3.org/2000/svg">
<rect width="74" height="74" fill="white"/>
<path d="M0 44.5L17.5 35L66 30V56H0V44.5Z" fill="#D9D9D9"/>
<path d="M73.5497 36.0147C73.4671 38.6691 72.2419 44.7541 72.1205 45.3667C71.9979 45.9792 71.8339 46.7553 71.3446 46.7143C70.854 46.6735 70.9353 46.1017 70.8953 44.7133C70.854 43.3248 71.018 34.5854 71.1393 32.0124C71.262 29.4397 72.0378 29.1129 72.0378 29.1129L73.0178 28.337C73.6724 28.5821 73.6311 33.3601 73.5497 36.0147ZM73.999 27.7244C73.999 27.7244 73.835 26.826 72.4871 27.0302C71.1393 27.2343 69.8741 27.9285 69.3835 28.1328C68.8942 28.337 68.0769 28.8679 67.056 28.9904C66.035 29.1129 64.6489 29.1947 64.6489 29.1947L19.9328 33.9113C19.9328 33.9113 17.3553 34.0953 13.8433 36.1372C10.4536 38.3017 0.448144 44.1007 0.448144 44.1007C0.448144 44.1007 -0.36858 44.5908 0.203101 45.4893C0.774912 46.3877 1.63256 47.4903 2.08172 47.7761C2.40849 48.0621 2.81685 47.9804 2.93937 47.7761C3.06189 47.572 15.2318 37.3215 15.2318 37.3215C15.2318 37.3215 17.7229 35.4021 20.9901 35.5654C24.2571 35.7287 30.4237 36.2188 31.2406 36.3823C32.0573 36.5456 33.3233 36.6681 34.9977 36.5456C36.672 36.423 65.0957 33.1559 65.0957 33.1559L68.4445 32.8293C68.4445 32.8293 68.8529 36.5048 68.4445 44.6724C68.3628 46.2652 68.6076 47.0819 69.1382 47.327C69.6701 47.572 70.854 47.7353 71.4259 47.6537C71.9979 47.572 72.3645 47.327 72.6098 46.3468C72.8551 45.3667 74.0389 37.6073 73.999 32.9926V27.7244Z" fill="black"/>
<path d="M67 56L62 53.1132L62 58.8867L67 56ZM0 56L5 58.8868L5 53.1132L0 56ZM62.5 55.5L4.5 55.5L4.5 56.5L62.5 56.5L62.5 55.5Z" fill="#FF0101"/>
</svg>
