<svg width="24" height="24" viewBox="0 0 24 24" fill="none" xmlns="http://www.w3.org/2000/svg">
<path d="M18 0H6C2.68629 0 0 2.68629 0 6V18C0 21.3137 2.68629 24 6 24H18C21.3137 24 24 21.3137 24 18V6C24 2.68629 21.3137 0 18 0Z" fill="black"/>
<path d="M9.40945 17.3309C8.98109 17.3309 9.05388 17.1691 8.90614 16.7613L7.64648 12.6156L17.3428 6.86328" fill="#C8DAEA"/>
<path d="M9.40723 17.3279C9.73778 17.3279 9.88383 17.1768 10.0683 16.9974L11.8313 15.2831L9.63222 13.957" fill="#A9C9DD"/>
<path d="M9.6328 13.9586L14.9614 17.8955C15.5694 18.231 16.0083 18.0573 16.1597 17.3309L18.3287 7.10981C18.5508 6.21949 17.9893 5.81569 17.4076 6.07978L4.67134 10.9908C3.80197 11.3395 3.80704 11.8246 4.51287 12.0407L7.78129 13.0608L15.348 8.28704C15.7052 8.07043 16.0331 8.18688 15.764 8.4257" fill="white"/>
</svg>
