<svg width="24" height="24" viewBox="0 0 24 24" fill="none" xmlns="http://www.w3.org/2000/svg">
<path d="M18 0H6C2.68629 0 0 2.68629 0 6V18C0 21.3137 2.68629 24 6 24H18C21.3137 24 24 21.3137 24 18V6C24 2.68629 21.3137 0 18 0Z" fill="black"/>
<path fill-rule="evenodd" clip-rule="evenodd" d="M18.4087 7.02839C19.204 7.02839 19.8488 6.38371 19.8488 5.58842C19.8488 4.79312 19.204 4.14844 18.4087 4.14844C17.6135 4.14844 16.9688 4.79312 16.9688 5.58842C16.9688 6.38371 17.6135 7.02839 18.4087 7.02839ZM8.00298 11.9989C8.00298 14.208 9.79383 15.9989 12.003 15.9989C14.2121 15.9989 16.003 14.208 16.003 11.9989C16.003 9.78971 14.2121 7.99886 12.003 7.99886C9.79383 7.99886 8.00298 9.78971 8.00298 11.9989ZM5.84082 11.9989C5.84082 8.59557 8.59969 5.8367 12.003 5.8367C15.4063 5.8367 18.1651 8.59557 18.1651 11.9989C18.1651 15.4021 15.4063 18.161 12.003 18.161C8.59969 18.161 5.84082 15.4021 5.84082 11.9989Z" fill="white"/>
</svg>
