<svg width="24" height="24" viewBox="0 0 24 24" fill="none" xmlns="http://www.w3.org/2000/svg">
<path d="M12 0C5.37259 0 0 5.37261 0 12C0 17.0838 3.16298 21.4298 7.62686 23.1782C7.522 22.2288 7.42718 20.7686 7.66847 19.7321C7.88655 18.7956 9.07561 13.7674 9.07561 13.7674C9.07561 13.7674 8.71667 13.0485 8.71667 11.9857C8.71667 10.3171 9.68381 9.07141 10.888 9.07141C11.9118 9.07141 12.4063 9.84006 12.4063 10.7618C12.4063 11.7914 11.7508 13.3307 11.4125 14.7572C11.1298 15.9516 12.0115 16.9256 13.1895 16.9256C15.3223 16.9256 16.9618 14.6768 16.9618 11.4306C16.9618 8.55735 14.8972 6.5485 11.9493 6.5485C8.53489 6.5485 6.53076 9.10948 6.53076 11.7561C6.53076 12.7875 6.92806 13.8935 7.42383 14.4947C7.5219 14.6135 7.53627 14.7176 7.50705 14.8389C7.41596 15.2179 7.21353 16.033 7.17379 16.1998C7.12145 16.4194 6.99987 16.4661 6.77245 16.3602C5.27373 15.6626 4.33669 13.4714 4.33669 11.7114C4.33669 7.92603 7.08703 4.44964 12.2655 4.44964C16.4283 4.44964 19.6633 7.41599 19.6633 11.3803C19.6633 15.5159 17.0557 18.8443 13.4364 18.8443C12.2204 18.8443 11.0773 18.2126 10.686 17.4664C10.686 17.4664 10.0843 19.7575 9.93838 20.319C9.66748 21.3613 8.93612 22.6678 8.44695 23.4649C9.5697 23.8125 10.7629 24 12 24C18.6274 24 24 18.6274 24 12C24 5.37261 18.6274 0 12 0Z" fill="black"/>
</svg>
