<svg width="20" height="20" viewBox="0 0 20 20" fill="none" xmlns="http://www.w3.org/2000/svg">
<path fill-rule="evenodd" clip-rule="evenodd" d="M9.99398 3.09742C8.04406 1.39335 5.16035 1.04464 2.92093 2.95805C0.498605 5.02773 0.146663 8.5134 2.06218 10.9783C2.93153 12.097 4.80405 13.9024 6.40573 15.3859C7.21729 16.1376 7.9768 16.8225 8.53324 17.3193C8.81157 17.5678 9.03933 17.7695 9.1977 17.9092C9.27689 17.979 9.33874 18.0334 9.3809 18.0704L9.4448 18.1264L9.44565 18.1272C9.44565 18.1272 9.44599 18.1275 9.99431 17.4999L9.44565 18.1272L9.99431 18.6066L10.5426 18.1275L9.99431 17.4999C10.5426 18.1275 10.5426 18.1275 10.5426 18.1275L10.6077 18.0704C10.6499 18.0334 10.7117 17.979 10.7909 17.9092C10.9493 17.7695 11.177 17.5678 11.4554 17.3193C12.0118 16.8225 12.7713 16.1376 13.5829 15.3859C15.1846 13.9024 17.0571 12.097 17.9264 10.9783C19.8346 8.52288 19.537 5.01032 17.059 2.95074C14.7946 1.06872 11.9417 1.3927 9.99398 3.09742Z" fill="#FF0101"/>
</svg>
