<svg width="24" height="24" viewBox="0 0 24 24" fill="none" xmlns="http://www.w3.org/2000/svg">
<g clip-path="url(#clip0_122_3084)">
<path d="M1.90735e-06 12.1436C1.90735e-06 14.2471 0.556454 16.279 1.62097 18.0718L0.510641 23.6077L6.26613 22.5657C8.00807 23.5219 9.99194 24 12 24C18.6048 24 24 18.6933 24 12.1675C24 8.98826 22.7419 6.02415 20.4919 3.77718C18.2177 1.5541 15.2177 0.31109 12 0.31109C5.39516 0.31109 1.90735e-06 5.61779 1.90735e-06 12.1436Z" fill="black"/>
<path fill-rule="evenodd" clip-rule="evenodd" d="M9.06029 6.92674C8.83673 6.43181 8.60143 6.42188 8.38876 6.41321C8.21484 6.4058 8.01568 6.40626 7.81686 6.40626C7.61792 6.40626 7.29455 6.48068 7.02117 6.77811C6.74757 7.07554 5.97656 7.7945 5.97656 9.25677C5.97656 10.7192 7.04603 12.1322 7.19509 12.3307C7.34432 12.5289 9.25957 15.6255 12.2928 16.8169C14.8137 17.8069 15.3266 17.61 15.8738 17.5605C16.421 17.5109 17.6394 16.8417 17.8881 16.1476C18.1368 15.4537 18.1368 14.8589 18.0622 14.7346C17.9875 14.6107 17.7886 14.5364 17.4901 14.3878C17.1917 14.2391 15.7246 13.52 15.451 13.4209C15.1774 13.3219 14.9784 13.2723 14.7795 13.5698C14.5805 13.8671 14.0089 14.5364 13.8348 14.7346C13.6607 14.9332 13.4866 14.958 13.1882 14.8093C12.8897 14.6603 11.9286 14.3467 10.7884 13.3342C9.90127 12.5465 9.30235 11.5736 9.12821 11.2761C8.95412 10.9788 9.1096 10.8178 9.25928 10.6697C9.39328 10.5365 9.55775 10.3227 9.70698 10.1492C9.85586 9.97561 9.90563 9.85174 10.0051 9.65355C10.1046 9.45507 10.0549 9.28152 9.98024 9.13289C9.90563 8.98427 9.32565 7.51441 9.06029 6.92674Z" fill="white"/>
</g>
<defs>
<clipPath id="clip0_122_3084">
<rect width="24" height="24" fill="white"/>
</clipPath>
</defs>
</svg>
