<svg width="24" height="24" viewBox="0 0 24 24" fill="none" xmlns="http://www.w3.org/2000/svg">
<path d="M18 0H6C2.68629 0 0 2.68629 0 6V18C0 21.3137 2.68629 24 6 24H18C21.3137 24 24 21.3137 24 18V6C24 2.68629 21.3137 0 18 0Z" fill="black"/>
<path d="M9.80384 17.46C15.1258 17.46 18.0358 13.05 18.0358 9.228C18.0358 9.102 18.0358 8.976 18.0298 8.856C18.5939 8.448 19.0859 7.938 19.4759 7.356C18.9599 7.584 18.4018 7.74 17.8138 7.812C18.4138 7.452 18.8699 6.888 19.0859 6.21C18.5279 6.54 17.9098 6.78 17.2498 6.912C16.7218 6.348 15.9718 6 15.1378 6C13.5418 6 12.2458 7.296 12.2458 8.892C12.2458 9.12 12.2698 9.342 12.3238 9.552C9.91784 9.432 7.78784 8.28 6.35984 6.528C6.11384 6.954 5.96984 7.452 5.96984 7.98C5.96984 8.982 6.47984 9.87 7.25984 10.386C6.78584 10.374 6.34184 10.242 5.95184 10.026C5.95184 10.038 5.95184 10.05 5.95184 10.062C5.95184 11.466 6.94784 12.63 8.27384 12.9C8.03384 12.966 7.77584 13.002 7.51184 13.002C7.32584 13.002 7.14584 12.984 6.96584 12.948C7.33184 14.1 8.39984 14.934 9.66584 14.958C8.67584 15.732 7.42784 16.194 6.07184 16.194C5.83784 16.194 5.60984 16.182 5.38184 16.152C6.64784 16.98 8.17184 17.46 9.80384 17.46Z" fill="white"/>
</svg>
