<svg width="88" height="19" viewBox="0 0 88 19" fill="none" xmlns="http://www.w3.org/2000/svg">
<path d="M4.00629 12.2221C4.00629 12.6172 4.21599 12.9096 4.63538 13.0992C5.05477 13.2889 5.6066 13.3837 6.29087 13.3837C7.24002 13.3837 8.01258 13.1862 8.60856 12.7911C9.22661 12.3959 9.53564 11.8902 9.53564 11.2739H10.1647C10.1647 12.6646 9.67911 13.7867 8.70789 14.6401C7.73667 15.4936 6.45642 15.9203 4.86715 15.9203C3.45446 15.9203 2.28458 15.6279 1.3575 15.0431C0.452501 14.4426 0 13.6761 0 12.7436C0 11.8902 0.353172 11.2185 1.05952 10.7286C1.76586 10.2229 2.86952 9.81198 4.3705 9.4959L9.53564 8.47653V10.3256L5.76111 11.0842C4.59123 11.3213 4.00629 11.7006 4.00629 12.2221ZM13.5419 15.4224H9.53564L10.6283 12.6962L9.53564 12.3406V8.21577C9.53564 7.71003 9.29283 7.30703 8.80722 7.00675C8.32161 6.70648 7.68149 6.55634 6.88685 6.55634C6.07014 6.55634 5.39691 6.74599 4.86715 7.12528C4.33739 7.48878 4.02837 7.9629 3.94007 8.54765L0 8.16835C0.242806 6.95144 0.982259 5.95578 2.21836 5.18138C3.45446 4.40698 5.0327 4.01978 6.95307 4.01978C8.89551 4.01978 10.4737 4.39908 11.6878 5.15767C12.9239 5.91627 13.5419 6.84871 13.5419 7.955V15.4224Z" fill="black"/>
<path d="M29.4901 4.97209H41.2885V7.82698H37.2787V15.5324H33.4999V7.82698H29.4901V4.97209Z" fill="black"/>
<path d="M51.516 4.97209H55.5351L50.4628 15.7357C49.9454 16.8382 49.2709 17.6389 48.4394 18.1379C47.6079 18.6368 46.6932 18.8862 45.6954 18.8862C44.9254 18.8862 44.2356 18.7908 43.6258 18.5998C43.0222 18.415 42.434 18.1163 41.8611 17.7036V15.0889C42.4463 15.4585 42.9914 15.7234 43.4965 15.8835C44.0015 16.0437 44.5559 16.1237 45.1595 16.1237C45.7077 16.1237 46.1697 16.0067 46.5454 15.7726C46.9211 15.5386 47.2291 15.1382 47.4693 14.5716L47.4785 14.5438H45.8247L41.3345 4.97209H45.5014L48.4764 12.1786L51.516 4.97209Z" fill="black"/>
<path d="M64.6235 12.1139L67.3305 4.97209H73.0034V15.5324H69.4648V7.89166L66.3327 15.5324H62.8865L59.7637 7.94709V15.5324H56.2251V4.97209H61.8979L64.6235 12.1139Z" fill="black"/>
<path d="M78.4269 12.0308L83.1481 4.97209H87.9987V15.5324H84.2753V8.27046L79.4155 15.5324H74.7128V4.97209H78.4269V12.0308Z" fill="black"/>
<path d="M20.828 1.92375C22.2689 1.94297 25.0666 1.70243 25.3541 0C25.385 0.892951 25.3372 1.82523 25.2579 2.71172C25.1908 3.23723 25.0249 3.67369 24.7601 4.02109C24.4753 4.36823 24.0415 4.62564 23.4589 4.79333C22.8765 4.94753 22.055 5.01756 20.9945 5.00341L19.0136 4.97698L19.0546 1.90009L20.828 1.92375Z" fill="black"/>
<path d="M18.9845 12.0307L23.7057 4.97199H28.5562V15.5323H24.8328V8.27036L19.973 15.5323H15.2703V4.97199H18.9845V12.0307Z" fill="black"/>
</svg>
