<svg width="305" height="31" viewBox="0 0 305 31" fill="none" xmlns="http://www.w3.org/2000/svg">
<path d="M66.8241 1.0166V25.5673H63.265V3.77674H62.1754L43.5082 25.5673H38.0605V1.0166H42.2734V22.5893L61.5217 1.0166H66.8241Z" fill="white"/>
<path d="M233.304 1.0166V25.422H229.745V4.62687H228.583L209.988 25.422H204.541V1.0166H208.753V22.4616L228.002 1.0166H233.304Z" fill="white"/>
<path d="M238.389 25.4223V1.07722H241.593V10.844H243.049L265.694 0V3.44709L244.869 12.3521V13.2139L267.879 25.4223H262.053L243.049 15.0092H241.593V25.4223H238.389Z" fill="white"/>
<path fill-rule="evenodd" clip-rule="evenodd" d="M174.034 25.422V1.01688H191.321C194.566 0.993019 201.04 2.51983 200.982 8.81794C200.924 15.116 194.517 15.9749 191.321 15.617H177.157V25.422H174.034ZM177.23 3.8078V13.0403H191.467C193.694 12.9448 198.135 11.9381 198.076 8.67452C198.018 5.41096 193.646 4.07023 191.467 3.8078H177.23Z" fill="white"/>
<path d="M105.103 13.1468C105.103 20.2874 97.4612 26.0759 88.0341 26.0759C78.607 26.0759 70.9648 20.2874 70.9648 13.1468C70.9648 6.00632 78.607 0.217773 88.0341 0.217773C97.4612 0.217773 105.103 6.00632 105.103 13.1468ZM75.3271 13.1468C75.3271 18.4625 81.0162 22.7718 88.0341 22.7718C95.052 22.7718 100.741 18.4625 100.741 13.1468C100.741 7.83114 95.052 3.52192 88.0341 3.52192C81.0162 3.52192 75.3271 7.83114 75.3271 13.1468Z" fill="white"/>
<path fill-rule="evenodd" clip-rule="evenodd" d="M30.071 1.0166V22.9818H33.848V30.9423H30.7247V25.4879H3.19595V30.9423H0V22.9818H3.77703L6.97298 16.864L7.33616 1.0166H30.071ZM26.5843 3.74316V22.9074H7.19067L9.87818 17.1581V3.74316H26.5843Z" fill="white"/>
<path d="M140.622 3.75231V1.0166H170.402V3.75231H157.577V25.422H153.881V3.75231H140.622Z" fill="white"/>
<path fill-rule="evenodd" clip-rule="evenodd" d="M272.891 25.422L277.539 18.3554H296.642L301.146 25.422H304.995L289.669 1.0166H285.021L269.767 25.422H272.891ZM287.418 3.7041L295.335 15.5142H279.355L287.418 3.7041Z" fill="white"/>
<path d="M108.372 1.0166V25.5673H112.585V3.77674H132.983V25.5673H137.135V1.0166H108.372Z" fill="white"/>
</svg>
